<svg xmlns="http://www.w3.org/2000/svg" viewBox="0 0 1280 760" shape-rendering="crispEdges">
  <rect width="1280" height="760" fill="#0d1525"/>
  <rect x="0" y="0" width="1280" height="200" fill="#132038"/>
  <rect x="0" y="200" width="1280" height="560" fill="#1b2b44"/>

  <rect x="60" y="40" width="230" height="140" fill="#334b6b"/>
  <rect x="340" y="40" width="230" height="140" fill="#3b5579"/>

  <rect x="140" y="320" width="92" height="92" fill="#476289"/>
  <rect x="280" y="320" width="92" height="92" fill="#476289"/>
  <rect x="420" y="320" width="92" height="92" fill="#476289"/>
  <rect x="140" y="460" width="92" height="92" fill="#4b6a94"/>
  <rect x="280" y="460" width="92" height="92" fill="#4b6a94"/>
  <rect x="420" y="460" width="92" height="92" fill="#4b6a94"/>

  <rect x="730" y="120" width="200" height="130" fill="#5c6f4a"/>
  <rect x="830" y="330" width="240" height="150" fill="#5e5a7f"/>
  <rect x="980" y="470" width="180" height="140" fill="#5f4e3f"/>
  <rect x="1030" y="40" width="200" height="140" fill="#375e67"/>

  <rect x="560" y="220" width="120" height="340" fill="#2f3f5e"/>

  <g fill="#0b1220" opacity="0.35">
    <rect x="0" y="250" width="1280" height="6"/>
    <rect x="0" y="420" width="1280" height="6"/>
    <rect x="0" y="590" width="1280" height="6"/>
    <rect x="210" y="0" width="6" height="760"/>
    <rect x="410" y="0" width="6" height="760"/>
    <rect x="610" y="0" width="6" height="760"/>
    <rect x="810" y="0" width="6" height="760"/>
    <rect x="1010" y="0" width="6" height="760"/>
  </g>
</svg>
